<?xml version="1.0"?>
<svg xmlns="http://www.w3.org/2000/svg" viewBox="0 0 64 64" width="512px" height="512px" class=""><g><g id="alarm"><path d="M57,26H45V20A13.018,13.018,0,0,0,37,8V7A5,5,0,0,0,27,7V8a13.018,13.018,0,0,0-8,12v6H7a5.006,5.006,0,0,0-5,5V57a5.006,5.006,0,0,0,5,5H57a5.006,5.006,0,0,0,5-5V31A5.006,5.006,0,0,0,57,26ZM29,7a3,3,0,1,1,6,0v.363a12.578,12.578,0,0,0-6,0ZM21,32V20a11,11,0,0,1,22,0V32a1,1,0,0,0,.293.707L45.586,35H18.414l2.293-2.293A1,1,0,0,0,21,32Zm14.858,5a3.981,3.981,0,0,1-7.716,0ZM7,28H19v3.586l-3.707,3.707A1,1,0,0,0,16,37H26.09a5.993,5.993,0,0,0,11.82,0H48a1,1,0,0,0,.707-1.707L45,31.586V28H57a3,3,0,0,1,3,3v1.391L32,46.874,4,32.391V31A3,3,0,0,1,7,28ZM31.541,48.889a1,1,0,0,0,.918,0L37.083,46.5,50.586,60H13.414l13.5-13.5ZM4,57V34.644L25.053,45.533,10.586,60H7A3,3,0,0,1,4,57Zm53,3H53.414L38.947,45.533,60,34.644V57A3,3,0,0,1,57,60Z" data-original="#000000" class="active-path" data-old_color="#000000" fill="#FFFFFF"/><path d="M26,25h5v7a1,1,0,0,0,.77.974A1.067,1.067,0,0,0,32,33a1,1,0,0,0,.9-.553l6-12A1,1,0,0,0,38,19H33V12a1,1,0,0,0-1.895-.447l-6,12A1,1,0,0,0,26,25Zm5-8.764V20a1,1,0,0,0,1,1h4.382L33,27.764V24a1,1,0,0,0-1-1H27.618Z" data-original="#000000" class="active-path" data-old_color="#000000" fill="#FFFFFF"/></g></g> </svg>
